<svg height="512" viewBox="0 0 60 60" width="512" xmlns="http://www.w3.org/2000/svg"><g id="Page-1" fill="none" fill-rule="evenodd"><g id="039---Internet-News" fill-rule="nonzero"><g id="Icons" transform="translate(1 1)"><circle id="Oval" cx="29" cy="29" fill="#02a9f4" r="29"/><path id="Shape" d="m29 0c-.5033333 0-1.0033333.01266667-1.5.038 15.4192225.79012792 27.5158989 13.5225465 27.5158989 28.962s-12.0966764 28.1718721-27.5158989 28.962c.4973333.0253333.9973333.038 1.5.038 16.0162576-.0000002 28.9999996-12.9837424 28.9999996-29s-12.983742-28.99999976-28.9999996-29z" fill="#0377bc"/><rect id="Rectangle-path" fill="#e91e63" height="16" rx="4" width="46" x="6" y="21"/><path id="Shape" d="m48 21h-3c2.209139 0 4 1.790861 4 4v8c0 2.209139-1.790861 4-4 4h3c2.209139 0 4-1.790861 4-4v-8c0-2.209139-1.790861-4-4-4z" fill="#ad1457"/></g><g id="Icons_copy" fill="#000"><path id="Shape" d="m30 0c-16.5685425 0-30 13.4314575-30 30s13.4314575 30 30 30 30-13.4314575 30-30c-.0203864-16.5600908-13.4399092-29.97961358-30-30zm27.97 29h-3.97v-3c-.0070024-1.9472742-1.1419257-3.7140104-2.91-4.53-.4049959-1.8628438-.9532938-3.6916178-1.64-5.47h4.78c2.3037535 3.9568521 3.5888753 8.4238531 3.74 13zm-5.01-15h-4.36c-1.6317548-3.6331621-4.0298966-6.87048294-7.03-9.49 4.5732398 2.093836 8.5050949 5.3698066 11.39 9.49zm-4.04 7h-8.42c-.19-1.76-.43-3.43-.72-5h7.53c.6663222 1.6220991 1.2046335 3.2938731 1.61 5zm-2.52-7h-7.03c-1.09-4.94-2.66-8.77-4.56-11.17 4.7 1.65 8.82 5.65 11.59 11.17zm-15.4-11.78c2.47.98 4.8 5.44 6.3 11.78h-6.3zm0 13.78h6.73c.31 1.58.56 3.26.76 5h-7.49zm-2-13.78v11.78h-6.3c1.5-6.34 3.83-10.8 6.3-11.78zm0 13.78v5h-7.49c.2-1.74.45-3.42.76-5zm-3.81-13.17c-1.9 2.4-3.47 6.23-4.56 11.17h-7.03c2.77-5.52 6.89-9.52 11.59-11.17zm-4.97 13.17c-.29 1.57-.53 3.24-.72 5h-8.42c.4053665-1.7061269.9436778-3.3779009 1.61-5zm-1.79-11.49c-3.0001034 2.61951706-5.3982452 5.8568379-7.03 9.49h-4.36c2.88490511-4.1201934 6.8167602-7.396164 11.39-9.49zm-12.66 11.49h4.78c-.68670623 1.7783822-1.2350041 3.6071562-1.64 5.47-1.76807428.8159896-2.90299758 2.5827258-2.91 4.53v3h-3.97c.15112465-4.5761469 1.43624647-9.0431479 3.74-13zm-3.74 15h3.97v3c.00700242 1.9472742 1.14192572 3.7140104 2.91 4.53.3298276 1.5139575.75059023 3.006663 1.26 4.47h-4.96c-1.95207678-3.7087357-3.03924668-7.8112636-3.18-12zm4.35 14h4.56c1.6438529 4.0332505 4.2089376 7.625739 7.49 10.49-4.9458583-2.2589232-9.13126945-5.9024886-12.05-10.49zm4.7-6h8.42c.15 1.39.33 2.73.54 4h-7.73c-.4935756-1.3061864-.9043889-2.6421646-1.23-4zm2.06 6h7.27c1.09 5.43 2.76 9.61 4.78 12.17-4.98-1.75-9.3-6.14-12.05-12.17zm15.86 12.78c-2.59-1.03-5.04-5.92-6.51-12.78h6.51zm0-14.78h-6.91c-.23-1.28-.42-2.62-.58-4h7.49zm-18-6c-1.6548028-.0049422-2.9950578-1.3451972-3-3v-8c.0049422-1.6548028 1.3451972-2.9950578 3-3h38c1.6548028.0049422 2.9950578 1.3451972 3 3v8c-.0049422 1.6548028-1.3451972 2.9950578-3 3zm37.92 2c-.3256111 1.3578354-.7364244 2.6938136-1.23 4h-7.73c.21-1.27.39-2.61.54-4zm-10.43 0c-.16 1.38-.35 2.72-.58 4h-6.91v-4zm-7.49 18.78v-12.78h6.52c-1.48 6.86-3.93 11.75-6.52 12.78zm8.59-12.78h7.27c-2.75 6.03-7.07 10.42-12.05 12.17 2.02-2.56 3.69-6.74 4.78-12.17zm1.98 10.49c3.2810624-2.864261 5.8461471-6.4567495 7.49-10.49h4.56c-2.9187305 4.5875114-7.1041417 8.2310768-12.05 10.49zm13.22-12.49h-4.96c.5094098-1.463337.9301724-2.9560425 1.26-4.47 1.7680743-.8159896 2.9029976-2.5827258 2.91-4.53v-3h3.97c-.1407533 4.1887364-1.2279232 8.2912643-3.18 12z"/><path id="Shape" d="m45 29c-.4851707-.000473-.9000069-.3491365-.9839455-.8269912-.0839386-.4778548.1872399-.9470217.6432053-1.1128119.4559653-.1657902.9651545.0196329 1.2077402.4398031.2843876.4596821.882589.61017 1.3506397.3397768s.6365131-.8637835.3803603-1.3397768c-.7279453-1.2608382-2.2560751-1.8170246-3.6241605-1.3190692-1.3680854.4979555-2.1811672 1.9062958-1.9283301 3.3400638.252837 1.433768 1.4986001 2.4790424 2.9544906 2.4790054.4851707.000473.9000069.3491365.9839455.8269912.0839386.4778548-.1872399.9470217-.6432053 1.1128119-.4559653.1657902-.9651545-.0196329-1.2077402-.4398031-.2843876-.4596821-.882589-.61017-1.3506397-.3397768s-.6365131.8637835-.3803603 1.3397768c.7279453 1.2608382 2.2560751 1.8170246 3.6241605 1.3190692 1.3680854-.4979555 2.1811672-1.9062958 1.9283301-3.3400638-.252837-1.433768-1.4986001-2.4790424-2.9544906-2.4790054z"/><path id="Shape" d="m27 27c.5522847 0 1-.4477153 1-1s-.4477153-1-1-1h-3c-1.1045695 0-2 .8954305-2 2v6c0 1.1045695.8954305 2 2 2h3c.5522847 0 1-.4477153 1-1s-.4477153-1-1-1h-3v-2h2c.5522847 0 1-.4477153 1-1s-.4477153-1-1-1h-2v-2z"/><path id="Shape" d="m39.164 25.014c-.5441602-.0903478-1.0587112.2769969-1.15.821l-.914 5.506-1.265-1.9c-.1961648-.2622542-.5044975-.4166681-.832-.4166681s-.6358352.1544139-.832.4166681l-1.265 1.9-.917-5.506c-.1024647-.5331533-.6116119-.8871593-1.1470763-.7975532-.5354645.0896062-.9016193.5900877-.8249237 1.1275532l1.333 8c.0677359.4044591.3755458.7265662.7765153.8125828.4009694.0860165.813813-.0814949 1.0414847-.4225828l1.832-2.755 1.835 2.752c.2276717.3410879.6405153.5085993 1.0414847.4225828.4009695-.0860166.7087794-.4081237.7765153-.8125828l1.333-8c.0890912-.5437833-.2785051-1.0571659-.822-1.148z"/><path id="Shape" d="m19 25c-.5522847 0-1 .4477153-1 1v4.49l-3.111-5.017c-.2349015-.3790479-.6923949-.5567545-1.1215704-.4356574-.4291754.1210971-.726305.5117297-.7284296.9576574l-.039 8c-.0013304.2660817.1034388.5217221.2911196.7103412.1876807.1886192.4427953.2946621.7088804.2946588.550338.0000069.9972483-.4446689 1-.995l.022-4.522 3.128 5.044c.235394.3798243.6942105.557379 1.1239658.4349568s.7261313-.5151047.7260342-.9619568v-8c0-.5522847-.4477153-1-1-1z"/></g></g></g></svg>